<svg id="Capa_1" enable-background="new 0 0 512 512" height="512" viewBox="0 0 512 512" width="512" xmlns="http://www.w3.org/2000/svg"><g><path d="m322.297 69.307h33.041c9.716 0 17.593 7.877 17.593 17.593v10.299l-56.271 10.153z" fill="#ffe07d"/><path d="m316.078 108.805 56.853-11.607v-10.298c0-3.849-1.236-7.409-3.333-10.305h-47.302z" fill="#ffd064"/><path d="m189.703 69.307h-33.041c-9.716 0-17.593 7.877-17.593 17.593v10.299l64.193 5.789z" fill="#ffe07d"/><path d="m142.402 76.595c-2.097 2.896-3.333 6.456-3.333 10.305v10.298l61.999 11.607-11.365-32.211h-47.301z" fill="#ffd064"/><path d="m189.703 57.134v40.064h27.117v-36.774c0-1.397 1.133-2.53 2.53-2.53h73.3c1.397 0 2.53 1.133 2.53 2.53v36.774h27.117v-40.064c0-14.556-11.8-26.357-26.357-26.357h-79.88c-14.556 0-26.357 11.8-26.357 26.357z" fill="#407093"/><path d="m189.703 76.595h27.117v28.429h-27.117z" fill="#365e7d"/><path d="m295.18 76.595h27.117v28.429h-27.117z" fill="#365e7d"/><path d="m448.279 481.223h-37.436c-1.972 0-3.625-1.493-3.824-3.455l-2.489-24.437 25.031-23.836 25.031 23.836-2.489 24.437c-.2 1.962-1.852 3.455-3.824 3.455z" fill="#407093"/><path d="m101.157 481.223h-37.436c-1.972 0-3.625-1.493-3.825-3.455l-2.489-24.437 25.031-15.547 25.031 15.547-2.489 24.437c-.198 1.962-1.85 3.455-3.823 3.455z" fill="#407093"/><path d="m448.871 97.198h-385.742l-63.129 63.13v229.874l63.129 63.129h385.742l63.129-63.129v-229.874z" fill="#e7a52e"/><path d="m470.793 145.025v148.118c0 77.091-62.494 139.585-139.585 139.585h-286.08l18.001 20.604h385.742l63.129-63.13v-229.874z" fill="#e27d47"/><path d="m512 160.328v-37.248c0-14.294-11.587-25.881-25.881-25.881h-37.248c0 34.865 28.264 63.129 63.129 63.129z" fill="#ffe07d"/><path d="m63.129 97.198h-37.248c-14.294 0-25.881 11.588-25.881 25.882v37.248c34.865 0 63.129-28.264 63.129-63.13z" fill="#ffe07d"/><path d="m448.871 453.331h37.248c14.294 0 25.881-11.587 25.881-25.881v-37.248c-34.865 0-63.129 28.264-63.129 63.129z" fill="#ffd064"/><path d="m0 390.202v37.248c0 14.294 11.587 25.881 25.881 25.881h37.248c0-34.865-28.264-63.129-63.129-63.129z" fill="#ffe07d"/><path d="m63.129 97.198h38.619v356.133h-38.619z" fill="#407093"/><path d="m410.251 97.198h38.619v356.133h-38.619z" fill="#407093" transform="matrix(-1 0 0 -1 859.122 550.529)"/><path d="m.539 432.727c2.437 11.763 12.857 20.604 25.342 20.604h37.248c0-7.215-1.21-14.146-3.439-20.604z" fill="#ffd064"/><path d="m63.13 432.727h38.619v20.603h-38.619z" fill="#365e7d"/><path d="m410.251 408.206v45.125h38.619v-85.061c-10.079 15.753-23.234 29.347-38.619 39.936z" fill="#365e7d"/><path d="m486.119 97.198h-15.326v47.826c11.058 9.536 25.459 15.303 41.207 15.303v-37.247c0-14.294-11.588-25.882-25.881-25.882z" fill="#ffd064"/><path d="m237.883 199.531-69.967 40.396c-2.457 1.419-5.525-.375-5.493-3.213l.892-79.246c.031-2.782 3.032-4.515 5.457-3.151l69.075 38.85c2.473 1.391 2.493 4.945.036 6.364z" fill="#95d6a4"/><path d="m365.528 236.555-74.442 74.442c-1.377 1.377-3.61 1.377-4.988 0l-15.761-15.761c-1.377-1.377-1.377-3.61 0-4.988l74.442-74.442c1.377-1.377 3.61-1.377 4.988 0l15.761 15.761c1.377 1.378 1.377 3.611 0 4.988z" fill="#f1f4f6"/><path d="m299.568 302.516c16.011 7.516 35.684 4.661 48.912-8.567s16.083-32.901 8.567-48.912z" fill="#5766cb"/><path d="m336.298 224.288c-16.011-7.516-35.684-4.661-48.912 8.567s-16.083 32.901-8.567 48.912z" fill="#5766cb"/><path d="m238.888 341.645-30.002 51.965c-1.699 2.943-5.462 3.951-8.405 2.252l-51.965-30.002c-2.943-1.699-3.951-5.462-2.252-8.405l30.002-51.965c1.699-2.943 5.462-3.951 8.405-2.252l51.965 30.002c2.943 1.699 3.951 5.462 2.252 8.405z" fill="#dd636e"/></g></svg>